<svg width="1440" height="54" viewBox="0 0 1440 54" fill="none" xmlns="http://www.w3.org/2000/svg">
<path d="M68.5605 52.449C82.3362 52.449 93.4922 41.1451 93.4922 27.1868V26.5902C93.4922 12.6319 82.3362 1.328 68.5605 1.328C54.7848 1.328 43.6289 12.6319 43.6289 26.5902V27.1868C43.6289 41.1451 54.7848 52.449 68.5605 52.449Z" stroke="white" stroke-miterlimit="10"/>
<path d="M108.563 21.9972C114.126 21.9972 118.63 17.4339 118.63 11.7969V11.5582C118.63 5.92122 114.126 1.35791 108.563 1.35791C103 1.35791 98.4961 5.92122 98.4961 11.5582V11.7969C98.4961 17.4339 103 21.9972 108.563 21.9972Z" stroke="white" stroke-miterlimit="10"/>
<path d="M108.563 52.449C114.126 52.449 118.63 47.8857 118.63 42.2486V42.01C118.63 36.373 114.126 31.8097 108.563 31.8097C103 31.8097 98.4961 36.373 98.4961 42.01V42.2486C98.4961 47.8857 103 52.449 108.563 52.449Z" stroke="white" stroke-miterlimit="10"/>
<path d="M35.6524 11.4687C35.6524 13.9442 34.7105 16.4198 32.856 18.2988L24.3786 26.8885L32.8855 35.5081C36.5943 39.2661 36.5943 45.3804 32.8855 49.1384C29.1766 52.8964 23.1423 52.8964 19.4334 49.1384L4.21525 33.7186C0.506375 29.9606 0.506375 23.8463 4.21525 20.0883L19.4334 4.66849C23.1423 0.910471 29.1766 0.910471 32.8855 4.66849C34.7399 6.51767 35.6524 8.99319 35.6524 11.4687Z" stroke="white" stroke-miterlimit="10"/>
<path d="M344.783 52.449C358.559 52.449 369.715 41.1451 369.715 27.1868V26.5902C369.715 12.6319 358.559 1.328 344.783 1.328C331.008 1.328 319.852 12.6319 319.852 26.5902V27.1868C319.852 41.1451 331.008 52.449 344.783 52.449Z" stroke="white" stroke-miterlimit="10"/>
<path d="M208.82 52.807H263.335C268.604 52.807 272.901 48.4823 272.901 43.1137C272.901 37.7451 268.633 33.4204 263.335 33.4204H208.82C203.551 33.4204 199.254 37.7451 199.254 43.1137C199.254 48.4823 203.551 52.807 208.82 52.807Z" stroke="white" stroke-miterlimit="10"/>
<path d="M209.998 22.9516C215.914 22.9516 220.712 18.09 220.712 12.0951V11.8565C220.712 5.86157 215.914 1 209.998 1C204.081 1 199.283 5.86157 199.283 11.8565V12.0951C199.283 18.09 204.081 22.9516 209.998 22.9516Z" stroke="white" stroke-miterlimit="10"/>
<path d="M180.473 21.9972C186.036 21.9972 190.54 17.4339 190.54 11.7969V11.5582C190.54 5.92122 186.036 1.35791 180.473 1.35791C174.91 1.35791 170.406 5.92122 170.406 11.5582V11.7969C170.406 17.4339 174.91 21.9972 180.473 21.9972Z" stroke="white" stroke-miterlimit="10"/>
<path d="M180.473 52.449C186.036 52.449 190.54 47.8857 190.54 42.2486V42.01C190.54 36.373 186.036 31.8097 180.473 31.8097C174.91 31.8097 170.406 36.373 170.406 42.01V42.2486C170.406 47.8857 174.91 52.449 180.473 52.449Z" stroke="white" stroke-miterlimit="10"/>
<path d="M384.754 21.9972C390.318 21.9972 394.821 17.4339 394.821 11.7969V11.5582C394.821 5.92122 390.318 1.35791 384.754 1.35791C379.191 1.35791 374.688 5.92122 374.688 11.5582V11.7969C374.687 17.4339 379.221 21.9972 384.754 21.9972Z" stroke="white" stroke-miterlimit="10"/>
<path d="M384.754 52.449C390.318 52.449 394.821 47.8857 394.821 42.2486V42.01C394.821 36.373 390.318 31.8097 384.754 31.8097C379.191 31.8097 374.688 36.373 374.688 42.01V42.2486C374.687 47.8857 379.221 52.449 384.754 52.449Z" stroke="white" stroke-miterlimit="10"/>
<path d="M311.873 11.4688C311.873 13.9443 310.931 16.4198 309.077 18.2988L300.57 26.9184L309.077 35.538C312.786 39.296 312.786 45.4103 309.077 49.1683C305.368 52.9263 299.334 52.9263 295.625 49.1683L280.407 33.7485C276.698 29.9905 276.698 23.8762 280.407 20.1182L295.625 4.6984C299.334 0.940378 305.368 0.940378 309.077 4.6984C310.931 6.51776 311.873 8.99328 311.873 11.4688Z" stroke="white" stroke-miterlimit="10"/>
<path d="M126.047 42.3382C126.047 39.8626 126.989 37.3871 128.843 35.5081L137.35 26.8885L128.843 18.2988C125.134 14.5407 125.134 8.42651 128.843 4.66849C132.552 0.910471 138.586 0.910471 142.295 4.66849L157.513 20.0883C161.222 23.8463 161.222 29.9606 157.513 33.7186L142.295 49.1384C138.586 52.8964 132.552 52.8964 128.843 49.1384C126.989 47.2594 126.047 44.7839 126.047 42.3382Z" stroke="white" stroke-miterlimit="10"/>
<path d="M712.629 52.807H767.143C772.412 52.807 776.71 48.4823 776.71 43.1137C776.71 37.7451 772.442 33.4204 767.143 33.4204H712.629C707.36 33.4204 703.062 37.7451 703.062 43.1137C703.062 48.4823 707.36 52.807 712.629 52.807Z" stroke="white" stroke-miterlimit="10"/>
<path d="M988.82 52.807H1043.33C1048.6 52.807 1052.9 48.4823 1052.9 43.1137C1052.9 37.7451 1048.63 33.4204 1043.33 33.4204H988.82C983.551 33.4204 979.254 37.7451 979.254 43.1137C979.254 48.4823 983.551 52.807 988.82 52.807Z" stroke="white" stroke-miterlimit="10"/>
<path d="M567.864 52.807H513.35C508.081 52.807 503.783 48.4823 503.783 43.1137C503.783 37.7451 508.051 33.4204 513.35 33.4204H567.864C573.133 33.4204 577.431 37.7451 577.431 43.1137C577.431 48.4823 573.162 52.807 567.864 52.807Z" stroke="white" stroke-miterlimit="10"/>
<path d="M1347.86 52.807H1293.35C1288.08 52.807 1283.78 48.4823 1283.78 43.1137C1283.78 37.7451 1288.05 33.4204 1293.35 33.4204H1347.86C1353.13 33.4204 1357.43 37.7451 1357.43 43.1137C1357.43 48.4823 1353.16 52.807 1347.86 52.807Z" stroke="white" stroke-miterlimit="10"/>
<path d="M848.561 52.449C862.336 52.449 873.492 41.1451 873.492 27.1868V26.5902C873.492 12.6319 862.336 1.328 848.561 1.328C834.785 1.328 823.629 12.6319 823.629 26.5902V27.1868C823.629 41.1451 834.785 52.449 848.561 52.449Z" stroke="white" stroke-miterlimit="10"/>
<path d="M713.777 22.9516C719.694 22.9516 724.491 18.09 724.491 12.0951V11.8565C724.491 5.86157 719.694 1 713.777 1C707.86 1 703.062 5.86157 703.062 11.8565V12.0951C703.062 18.09 707.86 22.9516 713.777 22.9516Z" stroke="white" stroke-miterlimit="10"/>
<path d="M684.251 21.9972C689.814 21.9972 694.317 17.4339 694.317 11.7969V11.5582C694.317 5.92122 689.814 1.35791 684.251 1.35791C678.687 1.35791 674.184 5.92122 674.184 11.5582V11.7969C674.184 17.4339 678.687 21.9972 684.251 21.9972Z" stroke="white" stroke-miterlimit="10"/>
<path d="M684.251 52.449C689.814 52.449 694.318 47.8857 694.318 42.2486V42.01C694.318 36.373 689.814 31.8097 684.251 31.8097C678.687 31.8097 674.184 36.373 674.184 42.01V42.2486C674.184 47.8857 678.687 52.449 684.251 52.449Z" stroke="white" stroke-miterlimit="10"/>
<path d="M888.563 21.9972C894.126 21.9972 898.63 17.4339 898.63 11.7969V11.5582C898.63 5.92122 894.126 1.35791 888.563 1.35791C883 1.35791 878.496 5.92122 878.496 11.5582V11.7969C878.496 17.4339 883 21.9972 888.563 21.9972Z" stroke="white" stroke-miterlimit="10"/>
<path d="M888.563 52.449C894.126 52.449 898.63 47.8857 898.63 42.2486V42.01C898.63 36.373 894.126 31.8097 888.563 31.8097C883 31.8097 878.496 36.373 878.496 42.01V42.2486C878.496 47.8857 883 52.449 888.563 52.449Z" stroke="white" stroke-miterlimit="10"/>
<path d="M815.652 11.4687C815.652 13.9442 814.71 16.4198 812.856 18.2988L804.379 26.8885L812.885 35.5081C816.594 39.2661 816.594 45.3804 812.885 49.1384C809.177 52.8964 803.142 52.8964 799.433 49.1384L784.215 33.7186C780.506 29.9606 780.506 23.8463 784.215 20.0883L799.433 4.66849C803.142 0.910471 809.177 0.910471 812.885 4.66849C814.74 6.51767 815.652 8.99319 815.652 11.4687Z" stroke="white" stroke-miterlimit="10"/>
<path d="M629.855 42.3382C629.855 39.8626 630.797 37.3871 632.652 35.5081L641.159 26.8885L632.652 18.2988C628.943 14.5407 628.943 8.42651 632.652 4.66849C636.361 0.910471 642.395 0.910471 646.104 4.66849L661.322 20.0883C665.031 23.8463 665.031 29.9606 661.322 33.7186L646.104 49.1384C642.395 52.8964 636.361 52.8964 632.652 49.1384C630.768 47.2594 629.855 44.7839 629.855 42.3382Z" stroke="white" stroke-miterlimit="10"/>
<path d="M1124.78 52.449C1138.56 52.449 1149.72 41.1451 1149.72 27.1868V26.5902C1149.72 12.6319 1138.56 1.328 1124.78 1.328C1111.01 1.328 1099.85 12.6319 1099.85 26.5902V27.1868C1099.85 41.1451 1111.01 52.449 1124.78 52.449Z" stroke="white" stroke-miterlimit="10"/>
<path d="M989.998 22.9516C995.914 22.9516 1000.71 18.09 1000.71 12.0951V11.8565C1000.71 5.86157 995.914 1 989.998 1C984.081 1 979.283 5.86157 979.283 11.8565V12.0951C979.283 18.09 984.081 22.9516 989.998 22.9516Z" stroke="white" stroke-miterlimit="10"/>
<path d="M960.473 21.9972C966.036 21.9972 970.54 17.4339 970.54 11.7969V11.5582C970.54 5.92122 966.036 1.35791 960.473 1.35791C954.91 1.35791 950.406 5.92122 950.406 11.5582V11.7969C950.406 17.4339 954.91 21.9972 960.473 21.9972Z" stroke="white" stroke-miterlimit="10"/>
<path d="M960.473 52.449C966.036 52.449 970.54 47.8857 970.54 42.2486V42.01C970.54 36.373 966.036 31.8097 960.473 31.8097C954.91 31.8097 950.406 36.373 950.406 42.01V42.2486C950.406 47.8857 954.91 52.449 960.473 52.449Z" stroke="white" stroke-miterlimit="10"/>
<path d="M1164.75 21.9972C1170.32 21.9972 1174.82 17.4339 1174.82 11.7969V11.5582C1174.82 5.92122 1170.32 1.35791 1164.75 1.35791C1159.19 1.35791 1154.69 5.92122 1154.69 11.5582V11.7969C1154.69 17.4339 1159.22 21.9972 1164.75 21.9972Z" stroke="white" stroke-miterlimit="10"/>
<path d="M1164.75 52.449C1170.32 52.449 1174.82 47.8857 1174.82 42.2486V42.01C1174.82 36.373 1170.32 31.8097 1164.75 31.8097C1159.19 31.8097 1154.69 36.373 1154.69 42.01V42.2486C1154.69 47.8857 1159.22 52.449 1164.75 52.449Z" stroke="white" stroke-miterlimit="10"/>
<path d="M1091.87 11.4688C1091.87 13.9443 1090.93 16.4198 1089.08 18.2988L1080.57 26.9184L1089.08 35.538C1092.79 39.296 1092.79 45.4103 1089.08 49.1683C1085.37 52.9263 1079.33 52.9263 1075.62 49.1683L1060.41 33.7485C1056.7 29.9905 1056.7 23.8762 1060.41 20.1182L1075.62 4.6984C1079.33 0.940378 1085.37 0.940378 1089.08 4.6984C1090.93 6.51776 1091.87 8.99328 1091.87 11.4688Z" stroke="white" stroke-miterlimit="10"/>
<path d="M906.047 42.3382C906.047 39.8626 906.989 37.3871 908.843 35.5081L917.35 26.8885L908.843 18.2988C905.134 14.5407 905.134 8.42651 908.843 4.66849C912.552 0.910471 918.586 0.910471 922.295 4.66849L937.513 20.0883C941.222 23.8463 941.222 29.9606 937.513 33.7186L922.295 49.1384C918.586 52.8964 912.552 52.8964 908.843 49.1384C906.989 47.2594 906.047 44.7839 906.047 42.3382Z" stroke="white" stroke-miterlimit="10"/>
<path d="M431.932 52.449C418.156 52.449 407 41.1451 407 27.1868V26.5902C407 12.6617 418.156 1.328 431.932 1.328C445.708 1.328 456.864 12.6319 456.864 26.5902V27.1868C456.864 41.1451 445.708 52.449 431.932 52.449Z" stroke="white" stroke-miterlimit="10"/>
<path d="M566.716 22.9516C560.8 22.9516 556.002 18.09 556.002 12.0951V11.8565C556.002 5.86157 560.8 1 566.716 1C572.633 1 577.431 5.86157 577.431 11.8565V12.0951C577.431 18.09 572.633 22.9516 566.716 22.9516Z" stroke="white" stroke-miterlimit="10"/>
<path d="M464.84 11.4687C464.84 13.9442 465.782 16.4198 467.636 18.2988L476.143 26.9184L467.636 35.5081C463.927 39.2661 463.927 45.3804 467.636 49.1384C471.345 52.8964 477.379 52.8964 481.088 49.1384L496.306 33.7186C500.015 29.9606 500.015 23.8463 496.306 20.0883L481.088 4.66849C477.379 0.910471 471.345 0.910471 467.636 4.66849C465.782 6.51767 464.84 8.99319 464.84 11.4687Z" stroke="white" stroke-miterlimit="10"/>
<path d="M619.789 42.3382C619.789 39.8626 618.847 37.3871 616.993 35.5081L608.486 26.8885L616.993 18.2988C620.702 14.5407 620.702 8.42651 616.993 4.66849C613.284 0.910471 607.25 0.910471 603.541 4.66849L588.293 20.0883C584.585 23.8463 584.585 29.9606 588.293 33.7186L603.511 49.1384C607.22 52.8964 613.255 52.8964 616.963 49.1384C618.847 47.2594 619.789 44.7839 619.789 42.3382Z" stroke="white" stroke-miterlimit="10"/>
<path d="M1409.86 42.3382C1409.86 39.8626 1410.8 37.3871 1412.65 35.5081L1421.16 26.8885L1412.65 18.2988C1408.94 14.5407 1408.94 8.42651 1412.65 4.66849C1416.36 0.910471 1422.39 0.910471 1426.1 4.66849L1441.32 20.0883C1445.03 23.8463 1445.03 29.9606 1441.32 33.7186L1426.1 49.1384C1422.39 52.8964 1416.36 52.8964 1412.65 49.1384C1410.77 47.2594 1409.86 44.7839 1409.86 42.3382Z" stroke="white" stroke-miterlimit="10"/>
<path d="M1211.93 52.449C1198.16 52.449 1187 41.1451 1187 27.1868V26.5902C1187 12.6617 1198.16 1.328 1211.93 1.328C1225.71 1.328 1236.86 12.6319 1236.86 26.5902V27.1868C1236.86 41.1451 1225.71 52.449 1211.93 52.449Z" stroke="white" stroke-miterlimit="10"/>
<path d="M1346.72 22.9516C1340.8 22.9516 1336 18.09 1336 12.0951V11.8565C1336 5.86157 1340.8 1 1346.72 1C1352.63 1 1357.43 5.86157 1357.43 11.8565V12.0951C1357.43 18.09 1352.63 22.9516 1346.72 22.9516Z" stroke="white" stroke-miterlimit="10"/>
<path d="M1244.84 11.4687C1244.84 13.9442 1245.78 16.4198 1247.64 18.2988L1256.14 26.9184L1247.64 35.5081C1243.93 39.2661 1243.93 45.3804 1247.64 49.1384C1251.35 52.8964 1257.38 52.8964 1261.09 49.1384L1276.31 33.7186C1280.02 29.9606 1280.02 23.8463 1276.31 20.0883L1261.09 4.66849C1257.38 0.910471 1251.35 0.910471 1247.64 4.66849C1245.78 6.51767 1244.84 8.99319 1244.84 11.4687Z" stroke="white" stroke-miterlimit="10"/>
<path d="M1399.79 42.3382C1399.79 39.8626 1398.85 37.3871 1396.99 35.5081L1388.49 26.8885L1396.99 18.2988C1400.7 14.5407 1400.7 8.42651 1396.99 4.66849C1393.28 0.910471 1387.25 0.910471 1383.54 4.66849L1368.29 20.0883C1364.58 23.8463 1364.58 29.9606 1368.29 33.7186L1383.51 49.1384C1387.22 52.8964 1393.25 52.8964 1396.96 49.1384C1398.85 47.2594 1399.79 44.7839 1399.79 42.3382Z" stroke="white" stroke-miterlimit="10"/>
</svg>
