<svg width="444" height="170" viewBox="0 0 444 170" fill="none" xmlns="http://www.w3.org/2000/svg">
<path d="M299.192 135.279C296.793 135.279 294.544 134.679 292.296 133.48C285.399 129.734 283 121.041 286.748 114.147L333.975 29.4711C337.723 22.5771 346.419 20.1791 353.315 23.9259C360.212 27.6726 362.611 36.365 358.863 43.259L311.636 127.935C309.087 132.581 304.14 135.279 299.192 135.279Z" fill="white"/>
<path d="M260.207 135.279C256.608 135.279 253.01 133.93 250.162 131.083L207.733 88.6698C202.185 83.1247 202.185 74.1325 207.733 68.5873C213.28 63.0422 222.276 63.0422 227.823 68.5873L270.252 111C275.799 116.545 275.799 125.538 270.252 131.083C267.403 133.78 263.805 135.279 260.207 135.279Z" fill="white"/>
<path d="M217.778 92.8663C214.18 92.8663 210.581 91.5175 207.733 88.6699C202.185 83.1248 202.185 74.1325 207.733 68.5874L250.162 26.1743C255.709 20.6291 264.704 20.6291 270.252 26.1743C275.799 31.7194 275.799 40.7116 270.252 46.2568L227.823 88.6699C225.124 91.5175 221.376 92.8663 217.778 92.8663Z" fill="white"/>
<path d="M429.623 92.866C426.025 92.866 422.426 91.5172 419.578 88.6697L377.149 46.2565C371.601 40.7114 371.601 31.7192 377.149 26.174C382.696 20.6288 391.692 20.6288 397.239 26.174L439.668 68.5871C445.215 74.1323 445.215 83.1245 439.668 88.6697C436.819 91.5172 433.221 92.866 429.623 92.866Z" fill="white"/>
<path d="M387.194 135.279C383.596 135.279 379.997 133.93 377.149 131.082C371.601 125.537 371.601 116.545 377.149 111L419.578 68.5871C425.125 63.0419 434.12 63.0419 439.668 68.5871C445.215 74.1322 445.215 83.1244 439.668 88.6696L397.239 131.082C394.39 133.78 390.792 135.279 387.194 135.279Z" fill="white"/>
<path d="M82.3307 169.27C80.8311 123.991 44.9895 87.2588 0 84.5601C44.9895 81.8613 80.8311 45.2786 82.3307 0C83.8304 45.5785 120.122 82.4611 165.561 84.71C120.122 86.959 83.8304 123.692 82.3307 169.27Z" fill="white"/>
</svg>
